<svg width="32" height="30" viewBox="0 0 32 30" fill="none" xmlns="http://www.w3.org/2000/svg">
<path fill-rule="evenodd" clip-rule="evenodd" d="M27.8754 15.3017C30.7082 12.2573 30.7082 7.26587 27.8754 4.22152C25.1193 1.25949 20.7144 1.25949 17.9582 4.22152C16.9003 5.35848 15.0997 5.35848 14.0418 4.22152C11.2856 1.25949 6.88075 1.25949 4.12458 4.22152C1.29181 7.26587 1.29181 12.2573 4.12458 15.3017L15.2679 27.2773C15.6634 27.7023 16.3366 27.7023 16.7321 27.2773L27.8754 15.3017ZM13.8037 28.6397L2.6604 16.6641C-0.886799 12.8519 -0.886801 6.67124 2.6604 2.8591C6.2076 -0.953034 11.9587 -0.953033 15.5059 2.8591C15.7729 3.14596 16.2271 3.14596 16.4941 2.8591C20.0413 -0.953033 25.7924 -0.953036 29.3396 2.8591C32.8868 6.67124 32.8868 12.8519 29.3396 16.6641L18.1963 28.6397C17.0097 29.9149 14.9903 29.9149 13.8037 28.6397Z" fill="#FFE592"/>
<path d="M2 7C2 3.68629 4.68629 1 8 1H12C14.2091 1 16 2.79086 16 5V14C16 17.3137 13.3137 20 10 20H9C5.13401 20 2 16.866 2 13V7Z" fill="#FFE592"/>
<path d="M8 7H16V24H12C9.79086 24 8 22.2091 8 20V7Z" fill="#FFE592"/>
<path d="M12 21H16V29V29C13.7909 29 12 27.2091 12 25V21Z" fill="#FFE592"/>
</svg>
